<svg width="29" height="29" viewBox="0 0 29 29" fill="none" xmlns="http://www.w3.org/2000/svg">
<path d="M5.1475 22.6562C6.67 21.5929 8.18042 20.7773 9.67875 20.2094C11.1771 19.6415 12.7842 19.3575 14.5 19.3575C16.2158 19.3575 17.829 19.6415 19.3394 20.2094C20.8498 20.7773 22.3662 21.5929 23.8888 22.6562C24.9521 21.3512 25.7073 20.0342 26.1544 18.705C26.6015 17.3758 26.825 15.9742 26.825 14.5C26.825 10.9958 25.6469 8.06563 23.2906 5.70937C20.9344 3.35312 18.0042 2.175 14.5 2.175C10.9958 2.175 8.06563 3.35312 5.70937 5.70937C3.35312 8.06563 2.175 10.9958 2.175 14.5C2.175 15.9742 2.40458 17.3758 2.86375 18.705C3.32292 20.0342 4.08417 21.3512 5.1475 22.6562ZM14.4933 15.5875C13.0961 15.5875 11.9202 15.108 10.9656 14.1489C10.011 13.1898 9.53375 12.0117 9.53375 10.6145C9.53375 9.21734 10.0133 8.04146 10.9724 7.08687C11.9314 6.13229 13.1096 5.655 14.5067 5.655C15.9039 5.655 17.0798 6.13454 18.0344 7.09362C18.989 8.0527 19.4662 9.23082 19.4662 10.628C19.4662 12.0252 18.9867 13.201 18.0276 14.1556C17.0686 15.1102 15.8904 15.5875 14.4933 15.5875ZM14.517 29C12.524 29 10.6454 28.6194 8.88125 27.8581C7.11708 27.0969 5.57646 26.0577 4.25938 24.7406C2.94229 23.4235 1.90312 21.8857 1.14187 20.1272C0.380625 18.3687 0 16.4898 0 14.4904C0 12.491 0.380625 10.6152 1.14187 8.86312C1.90312 7.11104 2.94229 5.57646 4.25938 4.25938C5.57646 2.94229 7.11426 1.90312 8.87277 1.14187C10.6313 0.380625 12.5102 0 14.5096 0C16.509 0 18.3848 0.380625 20.1369 1.14187C21.889 1.90312 23.4235 2.94229 24.7406 4.25938C26.0577 5.57646 27.0969 7.11143 27.8581 8.86429C28.6194 10.6171 29 12.4901 29 14.483C29 16.476 28.6194 18.3546 27.8581 20.1187C27.0969 21.8829 26.0577 23.4235 24.7406 24.7406C23.4235 26.0577 21.8886 27.0969 20.1357 27.8581C18.3829 28.6194 16.5099 29 14.517 29ZM14.5 26.825C15.8292 26.825 17.1281 26.6317 18.3969 26.245C19.6656 25.8583 20.9163 25.1817 22.1488 24.215C20.9163 23.345 19.6596 22.6804 18.3787 22.2212C17.0979 21.7621 15.805 21.5325 14.5 21.5325C13.195 21.5325 11.9021 21.7621 10.6213 22.2212C9.34042 22.6804 8.08375 23.345 6.85125 24.215C8.08375 25.1817 9.33437 25.8583 10.6031 26.245C11.8719 26.6317 13.1708 26.825 14.5 26.825ZM14.5 13.4125C15.3217 13.4125 15.9923 13.1527 16.5119 12.6331C17.0315 12.1135 17.2913 11.4429 17.2913 10.6213C17.2913 9.79958 17.0315 9.12896 16.5119 8.60938C15.9923 8.08979 15.3217 7.83 14.5 7.83C13.6783 7.83 13.0077 8.08979 12.4881 8.60938C11.9685 9.12896 11.7087 9.79958 11.7087 10.6213C11.7087 11.4429 11.9685 12.1135 12.4881 12.6331C13.0077 13.1527 13.6783 13.4125 14.5 13.4125Z" fill="#AAAAAA"/>
</svg>
