<svg width="40" height="41" viewBox="0 0 40 41" fill="none" xmlns="http://www.w3.org/2000/svg">
<mask id="mask0_2_68" style="mask-type:alpha" maskUnits="userSpaceOnUse" x="0" y="0" width="40" height="41">
<rect y="0.5" width="40" height="40" fill="#D9D9D9"/>
</mask>
<g mask="url(#mask0_2_68)">
<path d="M9.75 29C11.1667 27.9167 12.75 27.0625 14.5 26.4375C16.25 25.8125 18.0833 25.5 20 25.5C21.9167 25.5 23.75 25.8125 25.5 26.4375C27.25 27.0625 28.8333 27.9167 30.25 29C31.2222 27.8611 31.9792 26.5694 32.5208 25.125C33.0625 23.6806 33.3333 22.1389 33.3333 20.5C33.3333 16.8056 32.0347 13.6597 29.4375 11.0625C26.8403 8.46527 23.6944 7.16666 20 7.16666C16.3056 7.16666 13.1597 8.46527 10.5625 11.0625C7.96527 13.6597 6.66666 16.8056 6.66666 20.5C6.66666 22.1389 6.93749 23.6806 7.47916 25.125C8.02083 26.5694 8.77777 27.8611 9.75 29ZM20 22.1667C18.3611 22.1667 16.9792 21.6042 15.8542 20.4792C14.7292 19.3542 14.1667 17.9722 14.1667 16.3333C14.1667 14.6944 14.7292 13.3125 15.8542 12.1875C16.9792 11.0625 18.3611 10.5 20 10.5C21.6389 10.5 23.0208 11.0625 24.1458 12.1875C25.2708 13.3125 25.8333 14.6944 25.8333 16.3333C25.8333 17.9722 25.2708 19.3542 24.1458 20.4792C23.0208 21.6042 21.6389 22.1667 20 22.1667ZM20 37.1667C17.6944 37.1667 15.5278 36.7292 13.5 35.8542C11.4722 34.9792 9.70833 33.7917 8.20833 32.2917C6.70833 30.7917 5.52083 29.0278 4.64583 27C3.77083 24.9722 3.33333 22.8055 3.33333 20.5C3.33333 18.1944 3.77083 16.0278 4.64583 14C5.52083 11.9722 6.70833 10.2083 8.20833 8.70833C9.70833 7.20833 11.4722 6.02083 13.5 5.14583C15.5278 4.27083 17.6944 3.83333 20 3.83333C22.3055 3.83333 24.4722 4.27083 26.5 5.14583C28.5278 6.02083 30.2917 7.20833 31.7917 8.70833C33.2917 10.2083 34.4792 11.9722 35.3542 14C36.2292 16.0278 36.6667 18.1944 36.6667 20.5C36.6667 22.8055 36.2292 24.9722 35.3542 27C34.4792 29.0278 33.2917 30.7917 31.7917 32.2917C30.2917 33.7917 28.5278 34.9792 26.5 35.8542C24.4722 36.7292 22.3055 37.1667 20 37.1667ZM20 33.8333C21.4722 33.8333 22.8611 33.6181 24.1667 33.1875C25.4722 32.7569 26.6667 32.1389 27.75 31.3333C26.6667 30.5278 25.4722 29.9097 24.1667 29.4792C22.8611 29.0486 21.4722 28.8333 20 28.8333C18.5278 28.8333 17.1389 29.0486 15.8333 29.4792C14.5278 29.9097 13.3333 30.5278 12.25 31.3333C13.3333 32.1389 14.5278 32.7569 15.8333 33.1875C17.1389 33.6181 18.5278 33.8333 20 33.8333ZM20 18.8333C20.7222 18.8333 21.3194 18.5972 21.7917 18.125C22.2639 17.6528 22.5 17.0556 22.5 16.3333C22.5 15.6111 22.2639 15.0139 21.7917 14.5417C21.3194 14.0694 20.7222 13.8333 20 13.8333C19.2778 13.8333 18.6806 14.0694 18.2083 14.5417C17.7361 15.0139 17.5 15.6111 17.5 16.3333C17.5 17.0556 17.7361 17.6528 18.2083 18.125C18.6806 18.5972 19.2778 18.8333 20 18.8333Z" fill="#1C1B1F"/>
</g>
</svg>
