<svg width="24" height="24" viewBox="0 0 24 24" fill="none" xmlns="http://www.w3.org/2000/svg">
<mask id="mask0_1_84" style="mask-type:alpha" maskUnits="userSpaceOnUse" x="0" y="0" width="24" height="24">
<rect width="24" height="24" fill="#D9D9D9"/>
</mask>
<g mask="url(#mask0_1_84)">
<path d="M5.09998 20.775C4.58434 20.775 4.14293 20.5914 3.77575 20.2242C3.40857 19.857 3.22498 19.4156 3.22498 18.9V5.1C3.22498 4.58437 3.40857 4.14296 3.77575 3.77578C4.14293 3.40859 4.58434 3.225 5.09998 3.225H9.34998C9.52498 2.63333 9.85623 2.15625 10.3437 1.79375C10.8312 1.43125 11.3833 1.25 12 1.25C12.6166 1.25 13.1687 1.43125 13.6562 1.79375C14.1437 2.15625 14.475 2.63333 14.65 3.225H18.9C19.4156 3.225 19.857 3.40859 20.2242 3.77578C20.5914 4.14296 20.775 4.58437 20.775 5.1V18.9C20.775 19.4156 20.5914 19.857 20.2242 20.2242C19.857 20.5914 19.4156 20.775 18.9 20.775H5.09998ZM5.09998 18.9H18.9V5.1H5.09998V18.9ZM7.12498 16.85H13.925V14.975H7.12498V16.85ZM7.12498 12.925H16.875V11.05H7.12498V12.925ZM7.12498 9H16.875V7.125H7.12498V9ZM12 4.4C12.2166 4.4 12.3958 4.32917 12.5375 4.1875C12.6791 4.04583 12.75 3.86667 12.75 3.65C12.75 3.43333 12.6791 3.25417 12.5375 3.1125C12.3958 2.97083 12.2166 2.9 12 2.9C11.7833 2.9 11.6041 2.97083 11.4625 3.1125C11.3208 3.25417 11.25 3.43333 11.25 3.65C11.25 3.86667 11.3208 4.04583 11.4625 4.1875C11.6041 4.32917 11.7833 4.4 12 4.4Z" fill="#AAAAAA"/>
</g>
</svg>
