<svg width="40" height="29" viewBox="0 0 40 29" fill="none" xmlns="http://www.w3.org/2000/svg">
<path d="M20 0.863647C10.9091 0.863647 3.14545 6.51819 0 14.5C3.14545 22.4818 10.9091 28.1364 20 28.1364C29.0909 28.1364 36.8545 22.4818 40 14.5C36.8545 6.51819 29.0909 0.863647 20 0.863647ZM20 23.5909C14.9818 23.5909 10.9091 19.5182 10.9091 14.5C10.9091 9.48183 14.9818 5.4091 20 5.4091C25.0182 5.4091 29.0909 9.48183 29.0909 14.5C29.0909 19.5182 25.0182 23.5909 20 23.5909ZM20 9.04547C16.9818 9.04547 14.5455 11.4818 14.5455 14.5C14.5455 17.5182 16.9818 19.9546 20 19.9546C23.0182 19.9546 25.4545 17.5182 25.4545 14.5C25.4545 11.4818 23.0182 9.04547 20 9.04547Z" fill="#AAAAAA"/>
</svg>
