<svg width="40" height="41" viewBox="0 0 40 41" fill="none" xmlns="http://www.w3.org/2000/svg">
<mask id="mask0_2_46" style="mask-type:alpha" maskUnits="userSpaceOnUse" x="0" y="0" width="40" height="41">
<rect y="0.5" width="40" height="40" fill="#D9D9D9"/>
</mask>
<g mask="url(#mask0_2_46)">
<path d="M11.6666 23.8333C10.75 23.8333 9.96524 23.5069 9.31246 22.8542C8.65968 22.2014 8.33329 21.4167 8.33329 20.5C8.33329 19.5833 8.65968 18.7986 9.31246 18.1458C9.96524 17.4931 10.75 17.1667 11.6666 17.1667C12.5833 17.1667 13.368 17.4931 14.0208 18.1458C14.6736 18.7986 15 19.5833 15 20.5C15 21.4167 14.6736 22.2014 14.0208 22.8542C13.368 23.5069 12.5833 23.8333 11.6666 23.8333ZM11.6666 30.5C8.88885 30.5 6.52774 29.5278 4.58329 27.5833C2.63885 25.6389 1.66663 23.2778 1.66663 20.5C1.66663 17.7222 2.63885 15.3611 4.58329 13.4167C6.52774 11.4722 8.88885 10.5 11.6666 10.5C13.5277 10.5 15.2152 10.9583 16.7291 11.875C18.243 12.7917 19.4444 14 20.3333 15.5H35L40 20.5L32.5 28L29.1666 25.5L25.8333 28L22.2916 25.5H20.3333C19.4444 27 18.243 28.2083 16.7291 29.125C15.2152 30.0417 13.5277 30.5 11.6666 30.5ZM11.6666 27.1667C13.2222 27.1667 14.5902 26.6944 15.7708 25.75C16.9514 24.8056 17.7361 23.6111 18.125 22.1667H23.3333L25.75 23.875L29.1666 21.3333L32.125 23.625L35.25 20.5L33.5833 18.8333H18.125C17.7361 17.3889 16.9514 16.1944 15.7708 15.25C14.5902 14.3056 13.2222 13.8333 11.6666 13.8333C9.83329 13.8333 8.26385 14.4861 6.95829 15.7917C5.65274 17.0972 4.99996 18.6667 4.99996 20.5C4.99996 22.3333 5.65274 23.9028 6.95829 25.2083C8.26385 26.5139 9.83329 27.1667 11.6666 27.1667Z" fill="#1C1B1F"/>
</g>
</svg>
