<svg width="24" height="24" viewBox="0 0 24 24" fill="none" xmlns="http://www.w3.org/2000/svg">
<mask id="mask0_1_60" style="mask-type:alpha" maskUnits="userSpaceOnUse" x="0" y="0" width="24" height="24">
<rect width="24" height="24" fill="#D9D9D9"/>
</mask>
<g mask="url(#mask0_1_60)">
<path d="M5.39999 10.275L7.49999 11.175C7.74999 10.6917 8.0104 10.2208 8.28124 9.76251C8.55207 9.30417 8.84582 8.85001 9.16249 8.40001L7.58749 8.08751L5.39999 10.275ZM9.02499 12.375L11.8625 15.2125C12.7042 14.8542 13.5333 14.3938 14.35 13.8313C15.1667 13.2688 15.925 12.6375 16.625 11.9375C17.7583 10.8042 18.6437 9.52709 19.2812 8.10626C19.9187 6.68542 20.2083 5.35001 20.15 4.10001C18.9 4.04167 17.5625 4.32917 16.1375 4.96251C14.7125 5.59584 13.4333 6.47917 12.3 7.61251C11.6 8.31251 10.9687 9.07084 10.4062 9.88751C9.84374 10.7042 9.38332 11.5333 9.02499 12.375ZM13.8125 10.4125C13.4375 10.0375 13.25 9.58126 13.25 9.04376C13.25 8.50626 13.4375 8.05001 13.8125 7.67501C14.1875 7.30001 14.6458 7.11251 15.1875 7.11251C15.7292 7.11251 16.1875 7.30001 16.5625 7.67501C16.9375 8.05001 17.125 8.50626 17.125 9.04376C17.125 9.58126 16.9375 10.0375 16.5625 10.4125C16.1875 10.7875 15.7292 10.975 15.1875 10.975C14.6458 10.975 14.1875 10.7875 13.8125 10.4125ZM13.9625 18.85L16.1625 16.65L15.85 15.075C15.4 15.3917 14.9458 15.6833 14.4875 15.95C14.0292 16.2167 13.5583 16.475 13.075 16.725L13.9625 18.85ZM21.825 2.40001C22.2 4.20834 22.025 6.09584 21.3 8.06251C20.575 10.0292 19.3833 11.8417 17.725 13.5C17.6833 13.5417 17.6437 13.5792 17.6062 13.6125C17.5687 13.6458 17.5292 13.6833 17.4875 13.725L18 16.275C18.0667 16.5833 18.0542 16.8875 17.9625 17.1875C17.8708 17.4875 17.7125 17.75 17.4875 17.975L13.3375 22.125L11.2625 17.2625L6.97499 12.975L2.11249 10.9125L6.26249 6.75001C6.48749 6.52501 6.74999 6.36667 7.04999 6.27501C7.34999 6.18334 7.65415 6.17084 7.96249 6.23751L10.5125 6.75001L10.7375 6.52501C12.3958 4.86667 14.2062 3.67084 16.1687 2.93751C18.1312 2.20417 20.0167 2.02501 21.825 2.40001ZM4.02499 16.05C4.59999 15.475 5.29374 15.1854 6.10624 15.1813C6.91874 15.1771 7.61665 15.4625 8.19999 16.0375C8.77499 16.6208 9.0604 17.3188 9.05624 18.1313C9.05207 18.9438 8.76249 19.6375 8.18749 20.2125C7.76249 20.6375 7.07915 20.9938 6.13749 21.2813C5.19582 21.5688 3.87499 21.8292 2.17499 22.0625C2.40832 20.3625 2.66874 19.0417 2.95624 18.1C3.24374 17.1583 3.59999 16.475 4.02499 16.05ZM5.36249 17.3875C5.17915 17.5792 5.00415 17.8979 4.83749 18.3438C4.67082 18.7896 4.54999 19.2583 4.47499 19.75C4.96665 19.675 5.4354 19.5583 5.88124 19.4C6.32707 19.2417 6.64582 19.0708 6.83749 18.8875C7.05415 18.6792 7.16874 18.4229 7.18124 18.1188C7.19374 17.8146 7.09582 17.5583 6.88749 17.35C6.67915 17.1417 6.42499 17.0417 6.12499 17.05C5.82499 17.0583 5.57082 17.1708 5.36249 17.3875Z" fill="#AAAAAA"/>
</g>
</svg>
