<svg width="24" height="24" viewBox="0 0 24 24" fill="none" xmlns="http://www.w3.org/2000/svg">
<mask id="mask0_1_72" style="mask-type:alpha" maskUnits="userSpaceOnUse" x="0" y="0" width="24" height="24">
<rect width="24" height="24" fill="#D9D9D9"/>
</mask>
<g mask="url(#mask0_1_72)">
<path d="M14.0625 23.1375V21.2625C16.0125 21.2458 17.6625 20.5625 19.0125 19.2125C20.3625 17.8625 21.0458 16.2125 21.0625 14.2625H22.9375C22.9292 15.4958 22.6917 16.6479 22.225 17.7188C21.7583 18.7896 21.125 19.725 20.325 20.525C19.525 21.325 18.5896 21.9583 17.5188 22.425C16.4479 22.8917 15.2958 23.1292 14.0625 23.1375ZM14.0625 19.3875V17.5125C14.9542 17.5042 15.7167 17.1833 16.35 16.55C16.9833 15.9167 17.3042 15.1542 17.3125 14.2625H19.1875C19.1708 15.6792 18.6667 16.8833 17.675 17.875C16.6833 18.8667 15.4792 19.3708 14.0625 19.3875ZM5.55 22.5125C5.30833 22.5125 5.06667 22.4646 4.825 22.3688C4.58333 22.2729 4.36667 22.1333 4.175 21.95L0.625 18.4C0.441667 18.2083 0.302083 17.9938 0.20625 17.7563C0.110417 17.5188 0.0625 17.2792 0.0625 17.0375C0.0625 16.7875 0.110417 16.5438 0.20625 16.3063C0.302083 16.0688 0.441667 15.8583 0.625 15.675L3.8 12.5C4.175 12.125 4.63333 11.9333 5.175 11.925C5.71667 11.9167 6.175 12.1 6.55 12.475L7.85 13.7625L8.6375 12.975L7.35 11.675C6.975 11.3 6.7875 10.85 6.7875 10.325C6.7875 9.80001 6.975 9.35001 7.35 8.97501L8.775 7.55001C9.15 7.17501 9.60417 6.98751 10.1375 6.98751C10.6708 6.98751 11.125 7.17501 11.5 7.55001L12.8 8.83751L13.5875 8.05001L12.3 6.75001C11.925 6.37501 11.7375 5.92085 11.7375 5.38751C11.7375 4.85418 11.925 4.40001 12.3 4.02501L15.475 0.850012C15.6667 0.658346 15.8812 0.512512 16.1187 0.412512C16.3562 0.312512 16.5958 0.262512 16.8375 0.262512C17.0792 0.262512 17.3188 0.312512 17.5562 0.412512C17.7937 0.512512 18.0083 0.658346 18.2 0.850012L21.75 4.40001C21.9417 4.58335 22.0833 4.79168 22.175 5.02501C22.2667 5.25835 22.3125 5.50001 22.3125 5.75001C22.3125 5.99168 22.2667 6.23335 22.175 6.47501C22.0833 6.71668 21.9417 6.93335 21.75 7.12501L18.575 10.3C18.2 10.675 17.7458 10.8625 17.2125 10.8625C16.6792 10.8625 16.225 10.675 15.85 10.3L14.55 9.01251L13.7625 9.80001L15.05 11.1C15.425 11.475 15.6083 11.9292 15.6 12.4625C15.5917 12.9958 15.4 13.45 15.025 13.825L13.625 15.225C13.25 15.6 12.7958 15.7875 12.2625 15.7875C11.7292 15.7875 11.275 15.6 10.9 15.225L9.6 13.9375L8.8125 14.725L10.1 16.025C10.475 16.4 10.6583 16.8583 10.65 17.4C10.6417 17.9417 10.45 18.4 10.075 18.775L6.9 21.95C6.71667 22.1333 6.50833 22.2729 6.275 22.3688C6.04167 22.4646 5.8 22.5125 5.55 22.5125ZM5.55 20.6875L6.6875 19.55L3.05 15.9125L1.9125 17.05L5.55 20.6875ZM7.675 18.5625L8.8125 17.425L5.175 13.7875L4.0375 14.925L7.675 18.5625ZM12.275 13.9625L13.7625 12.475L10.125 8.83751L8.6375 10.325L12.275 13.9625ZM17.225 9.01251L18.3625 7.87501L14.725 4.23751L13.5875 5.37501L17.225 9.01251ZM19.35 6.88751L20.4875 5.75001L16.85 2.11251L15.7125 3.25001L19.35 6.88751Z" fill="#AAAAAA"/>
</g>
</svg>
